# xmcd
#
# Track frame offsets:
#	150
#	14507
#	28537
#	47012
#	62253
#	75880
#	87009
#	105526
#	121740
#	140702
#	157844
#	173130
#	189173
#	204314
#	215018
#
# Disc length: 3034 seconds
#
# Revision: 0
# Processed by: cddbd v1.5.2PL0 Copyright (c) Steve Scherf et al.
# Submitted via: EasyCDDAExtractor 11.0.2.1
#
DISCID=b00bd80f
DTITLE=who's news - country treffers, south african_vol.2
DYEAR=1900
DGENRE=
TTITLE0=every little thing
TTITLE1=oh lonesome me
TTITLE2=breathe
TTITLE3=amanda
TTITLE4=I love a rainy night
TTITLE5=chattahoochie
TTITLE6=insensitive
TTITLE7=mercury blues
TTITLE8=any man of mine
TTITLE9=livin' on love
TTITLE10=you've got a way
TTITLE11=blame it on your heart
TTITLE12=why not me
TTITLE13=turn out the lights
TTITLE14=your cheatin' heart
EXTD=
EXTT0=
EXTT1=
EXTT2=
EXTT3=
EXTT4=
EXTT5=
EXTT6=
EXTT7=
EXTT8=
EXTT9=
EXTT10=
EXTT11=
EXTT12=
EXTT13=
EXTT14=
PLAYORDER=
